<?xml version="1.0" encoding="UTF-8" standalone="no"?>
<!-- Created with Inkscape (http://www.inkscape.org/) -->

<svg
   xmlns:dc="http://purl.org/dc/elements/1.1/"
   xmlns:cc="http://creativecommons.org/ns#"
   xmlns:rdf="http://www.w3.org/1999/02/22-rdf-syntax-ns#"
   xmlns:svg="http://www.w3.org/2000/svg"
   xmlns="http://www.w3.org/2000/svg"
   xmlns:sodipodi="http://sodipodi.sourceforge.net/DTD/sodipodi-0.dtd"
   xmlns:inkscape="http://www.inkscape.org/namespaces/inkscape"
   width="700mm"
   height="700mm"
   viewBox="0 0 700.00002 700.00002"
   version="1.1"
   id="svg930"
   inkscape:version="0.92.4 (5da689c313, 2019-01-14)"
   sodipodi:docname="listen-on-spotify.svg"
   inkscape:export-filename="G:\Users\suitedoalex\sites\listen-on-spotify-0.png"
   inkscape:export-xdpi="148.63"
   inkscape:export-ydpi="148.63">
  <defs
     id="defs924" />
  <sodipodi:namedview
     id="base"
     pagecolor="#ffffff"
     bordercolor="#666666"
     borderopacity="1.0"
     inkscape:pageopacity="0.0"
     inkscape:pageshadow="2"
     inkscape:zoom="0.175"
     inkscape:cx="622.18818"
     inkscape:cy="1484.9141"
     inkscape:document-units="mm"
     inkscape:current-layer="layer1"
     showgrid="false"
     fit-margin-top="0"
     fit-margin-left="0"
     fit-margin-right="0"
     fit-margin-bottom="0"
     inkscape:window-width="1600"
     inkscape:window-height="837"
     inkscape:window-x="-8"
     inkscape:window-y="-8"
     inkscape:window-maximized="1" />
  <metadata
     id="metadata927">
    <rdf:RDF>
      <cc:Work
         rdf:about="">
        <dc:format>image/svg+xml</dc:format>
        <dc:type
           rdf:resource="http://purl.org/dc/dcmitype/StillImage" />
        <dc:title></dc:title>
      </cc:Work>
    </rdf:RDF>
  </metadata>
  <g
     inkscape:label="Layer 1"
     inkscape:groupmode="layer"
     id="layer1"
     transform="translate(-291.98915,771.23993)">
    <path
       d="m 477.16797,-526.57912 c -1.16843,0 -2.30844,-0.0138 -3.46763,-0.0414 -2.14394,-0.0553 -4.68664,-0.17972 -7.16724,-0.62349 -2.34066,-0.42164 -4.42052,-1.10871 -6.35276,-2.09507 -1.99977,-1.01193 -3.79703,-2.3193 -5.35699,-3.88836 -1.58789,-1.55356 -2.8928,-3.33896 -3.91316,-5.34128 -0.99426,-1.9307 -1.67379,-4.00379 -2.08218,-6.33844 -0.46823,-2.57339 -0.58783,-5.18452 -0.63842,-7.17163 -0.0235,-0.80734 -0.0567,-3.49243 -0.0567,-3.49243 v -88.3556 c 0,0 0.0332,-2.64446 0.0553,-3.42138 0.0511,-2.00368 0.17003,-4.61262 0.63454,-7.16042 0.4103,-2.34723 1.08977,-4.41839 2.08412,-6.35725 1.01844,-2.00575 2.32528,-3.80029 3.89247,-5.34667 1.58599,-1.58386 3.39094,-2.89468 5.37727,-3.91089 1.96981,-0.99673 4.04627,-1.6791 6.33973,-2.08029 2.58181,-0.46172 5.19969,-0.57785 7.19176,-0.62762 l 3.46039,-0.0414 h 329.62184 l 3.5014,0.0553 c 1.966,0.0553 4.58349,0.16452 7.1262,0.6221 2.3104,0.40367 4.4002,1.08936 6.4072,2.09563 1.966,1.00503 3.7671,2.31584 5.3362,3.88448 1.5692,1.55357 2.88329,3.35778 3.9243,5.37115 0.9886,1.9553 1.66279,4.02645 2.0524,6.30678 0.4455,2.41303 0.584,4.89117 0.6664,7.21821 0.011,1.08382 0.011,2.24659 0.011,3.40437 0.03,1.43441 0.03,2.79942 0.03,4.17605 v 80.04843 c 0,1.38961 0,2.7455 -0.03,4.11245 0,1.24418 0,2.38331 -0.015,3.55602 -0.079,2.25239 -0.2169,4.72901 -0.6554,7.08923 -0.3969,2.34584 -1.07091,4.41879 -2.0707,6.38751 -1.03331,1.98697 -2.3479,3.78343 -3.8945,5.3001 -1.584,1.59878 -3.38161,2.90227 -5.3661,3.91075 -1.9886,1.00779 -4.0182,1.67689 -6.3961,2.10295 -2.4564,0.44514 -4.9991,0.56403 -7.1675,0.62349 -1.1233,0.0277 -2.2993,0.0414 -3.4413,0.0414 l -4.1568,0.007 z"
       id="Path-Copy-5-5"
       inkscape:connector-curvature="0"
       style="fill:#000000;fill-opacity:1;fill-rule:evenodd;stroke:none;stroke-width:3.65767622"
       inkscape:export-filename="G:\Users\suitedoalex\sites\listen-on-spotify.png"
       inkscape:export-xdpi="45.858719"
       inkscape:export-ydpi="45.858719" />
    <path
       d="m 599.7313,-622.04315 v -21.18378 h 3.3292 v 18.38893 h 10.0874 v 2.79485 z m 18.3203,-17.91255 c -1.032,0 -1.9309,-0.79351 -1.9309,-1.81028 0,-1.01608 0.8988,-1.84208 1.9309,-1.84208 1.0652,0 1.9309,0.8253 1.9309,1.84208 0,1.0161 -0.8655,1.81028 -1.9309,1.81028 z m -1.4649,17.91255 v -15.33997 h 2.9963 v 15.33997 z m 6.2021,-2.00078 1.4316,-2.09618 c 1.0986,1.14327 3.2292,2.19143 5.3932,2.19143 2.2638,0 3.4624,-0.8889 3.4624,-2.19143 0,-1.52454 -1.8311,-2.03272 -3.8952,-2.47732 -2.7299,-0.60412 -5.9259,-1.30224 -5.9259,-4.60513 0,-2.44552 2.1972,-4.5417 6.1256,-4.5417 2.7633,0 4.7608,0.95249 6.1257,2.19143 l -1.3316,2.00093 c -0.9322,-1.07968 -2.7299,-1.87389 -4.7608,-1.87389 -2.0307,0 -3.2959,0.76172 -3.2959,2.00093 0,1.33405 1.7312,1.7785 3.7288,2.22322 2.7964,0.60274 6.1257,1.33405 6.1257,4.85924 0,2.63601 -2.2639,4.7004 -6.4919,4.7004 -2.6967,0 -5.0605,-0.79352 -6.6917,-2.38193 z m 21.2499,2.38193 c -2.5301,0 -3.8285,-1.36585 -3.8285,-3.77943 v -9.43272 h -2.6634 v -2.50897 h 2.6634 v -4.19223 h 2.9962 v 4.19223 h 3.2627 v 2.50897 h -3.2627 v 8.79749 c 0,1.07968 0.5327,1.87389 1.5648,1.87389 0.699,0 1.3317,-0.28616 1.6313,-0.60274 l 0.7657,2.15963 c -0.6326,0.57095 -1.5647,0.98429 -3.1294,0.98429 z m 4.6041,-8.06703 c 0,-4.44631 3.3625,-8.03523 8.0566,-8.03523 4.8273,0 7.8235,3.58892 7.8235,8.28932 v 0.69813 h -12.7174 c 0.2329,2.60435 2.2306,4.76398 5.4599,4.76398 1.6979,0 3.56221,-0.63592 4.7607,-1.81028 l 1.3982,1.87387 c -1.598,1.49276 -3.8618,2.28668 -6.4586,2.28668 -4.794,0 -8.3229,-3.23944 -8.3229,-8.06703 z m 8.0566,-5.68497 c -3.2293,0 -4.7607,2.47731 -4.9272,4.57335 h 9.8211 c -0.066,-2.03257 -1.4981,-4.57335 -4.8939,-4.57335 z m 22.282,13.37085 v -9.81371 c 0,-2.54077 -1.3649,-3.36663 -3.4291,-3.36663 -1.86419,0 -3.56209,1.07967 -4.42769,2.22322 v 10.95712 h -2.9963 v -15.33997 h 2.9963 v 2.15963 c 1.0653,-1.23866 3.196,-2.54077 5.6928,-2.54077 3.3958,0 5.1603,1.71504 5.1603,4.95449 v 10.76662 z m 23.1574,0.38156 c -4.99379,0 -8.1232,-3.62058 -8.1232,-8.06703 0,-4.41465 3.12941,-8.03523 8.1232,-8.03523 5.02711,0 8.1232,3.62058 8.1232,8.03523 0,4.44645 -3.09609,8.06703 -8.1232,8.06703 z m 0,-2.54077 c 3.2293,0 4.9938,-2.60435 4.9938,-5.52626 0,-2.8901 -1.7645,-5.49446 -4.9938,-5.49446 -3.196,0 -4.99379,2.60436 -4.99379,5.49446 0,2.92191 1.7978,5.52626 4.99379,5.52626 z m 22.61491,2.15964 v -9.81372 c 0,-2.54078 -1.365,-3.36664 -3.4291,-3.36664 -1.8642,0 -3.5622,1.07968 -4.4278,2.22322 v 10.95714 h -2.99621 v -15.33998 h 2.99621 v 2.15962 c 1.0653,-1.23865 3.196,-2.54077 5.6929,-2.54077 3.3958,0 5.1603,1.71505 5.1603,4.95449 v 10.76664 z"
       id="Listenon-4-3"
       inkscape:connector-curvature="0"
       style="fill:#ffffff;fill-rule:nonzero;stroke:none;stroke-width:3.65767622"
       inkscape:export-filename="G:\Users\suitedoalex\sites\listen-on-spotify.png"
       inkscape:export-xdpi="45.858719"
       inkscape:export-ydpi="45.858719" />
    <path
       d="m 565.44711,-604.69671 c -14.1483,-8.40239 -37.48568,-9.1749 -50.99194,-5.07571 -2.16938,0.65803 -4.46296,-0.56542 -5.1202,-2.73487 -0.65736,-2.17041 0.5661,-4.46247 2.73644,-5.12176 15.50429,-4.70619 41.27834,-3.7974 57.5661,5.87132 1.9508,1.15848 2.5908,3.67782 1.4346,5.62537 -1.1573,1.95089 -3.6789,2.594 -5.625,1.43565 z m -0.46323,12.44491 c -0.99271,1.61067 -3.09869,2.11594 -4.70723,1.12669 -11.7955,-7.25029 -29.78204,-9.3509 -43.73694,-5.11499 -1.80982,0.54605 -3.72081,-0.4728 -4.27063,-2.27991 -0.5451,-1.80933 0.47541,-3.71708 2.28205,-4.26742 15.9414,-4.83781 35.75926,-2.49487 49.3069,5.83095 1.60854,0.9912 2.1149,3.0976 1.12585,4.70454 z m -5.37075,11.95166 c -0.78885,1.29394 -2.47288,1.69872 -3.76164,0.911 -10.30703,-6.29943 -23.28028,-7.72196 -38.55864,-4.23229 -1.47224,0.33731 -2.93982,-0.58477 -3.27581,-2.05719 -0.3369,-1.47188 0.58227,-2.93933 2.05773,-3.2754 16.71967,-3.82185 31.06144,-2.17718 42.63054,4.89228 1.28995,0.78799 1.69611,2.47276 0.90781,3.76214 z m -20.12968,-63.30792 c -24.24046,0 -43.89214,19.65122 -43.89214,43.89157 0,24.24309 19.65168,43.89266 43.89214,43.89266 24.24144,0 43.89206,-19.64957 43.89206,-43.89266 0,-24.24035 -19.65062,-43.89157 -43.89206,-43.89157 z"
       id="Spotify_Icon_RGB_Green-4-6"
       inkscape:connector-curvature="0"
       style="fill:#1ed760;fill-opacity:1;fill-rule:evenodd;stroke:none;stroke-width:3.65767622"
       inkscape:export-filename="G:\Users\suitedoalex\sites\listen-on-spotify.png"
       inkscape:export-xdpi="45.858719"
       inkscape:export-ydpi="45.858719" />
    <path
       class="st0"
       d="m 783.4814,-566.07266 c -2.6859,0 -4.7879,-2.21878 -4.7879,-4.78791 0,-2.6859 2.102,-4.90468 4.9047,-4.90468 2.6859,0 4.7879,2.21878 4.7879,4.78791 0,2.6859 -2.10199,4.90468 -4.9047,4.90468 m 0.1168,-9.22547 c -2.4523,0 -4.3208,1.98523 -4.3208,4.43756 0,2.45235 1.86851,4.3208 4.3208,4.3208 2.4524,0 4.3208,-1.98523 4.3208,-4.43757 0,-2.33556 -1.8684,-4.32079 -4.3208,-4.32079 m 1.051,4.90469 1.4014,1.86844 h -1.1678 l -1.2846,-1.75167 h -1.051 v 1.75167 h -0.9342 v -5.13825 h 2.2188 c 1.1677,0 1.9852,0.5839 1.9852,1.6349 0,0.81745 -0.4671,1.40134 -1.1678,1.63491 m -0.8174,-2.33558 h -1.2846 v 1.6349 h 1.2846 c 0.5838,0 1.051,-0.35034 1.051,-0.81745 -0.1168,-0.58389 -0.4672,-0.81745 -1.051,-0.81745"
       id="path4-2"
       style="fill:#1dd15d;fill-opacity:1;stroke-width:1.16778159"
       inkscape:connector-curvature="0"
       inkscape:export-filename="G:\Users\suitedoalex\sites\listen-on-spotify.png"
       inkscape:export-xdpi="45.858719"
       inkscape:export-ydpi="45.858719" />
    <path
       class="st0"
       d="m 618.2403,-590.12897 c -7.7074,-1.86844 -9.1087,-3.153 -9.1087,-5.8389 0,-2.56912 2.4523,-4.3208 5.9557,-4.3208 3.5034,0 6.8899,1.28457 10.51,3.97047 0.1169,0.11677 0.2336,0.11677 0.3504,0.11677 0.1168,0 0.2335,-0.11677 0.3503,-0.23356 l 3.7369,-5.25501 c 0.1168,-0.23356 0.1168,-0.46712 -0.1168,-0.70068 -4.3208,-3.38656 -9.1087,-5.13824 -14.714,-5.13824 -8.2913,0 -14.1302,5.02147 -14.1302,12.14494 0,7.59057 5.0215,10.39326 13.6631,12.49526 7.357,1.75168 8.6415,3.153 8.6415,5.60535 0,2.80268 -2.5691,4.55435 -6.5395,4.55435 -4.4376,0 -8.1746,-1.51812 -12.2617,-5.02146 -0.1169,-0.11678 -0.2336,-0.11678 -0.3504,-0.11678 -0.1168,0 -0.2335,0.11678 -0.3503,0.23356 l -4.204,5.02146 c -0.2336,0.23355 -0.1169,0.4671 0,0.70066 4.7878,4.20402 10.6268,6.53958 16.9328,6.53958 8.9919,0 14.7141,-4.90468 14.7141,-12.49526 0.1167,-6.53957 -3.737,-10.04292 -13.0792,-12.26171"
       id="path8-8"
       style="fill:#1dd15d;fill-opacity:1;stroke-width:1.16778159"
       inkscape:connector-curvature="0"
       inkscape:export-filename="G:\Users\suitedoalex\sites\listen-on-spotify.png"
       inkscape:export-xdpi="45.858719"
       inkscape:export-ydpi="45.858719" />
    <path
       class="st0"
       d="m 651.6389,-597.71954 c -3.8537,0 -7.0067,1.51811 -9.6926,4.67112 v -3.50334 c 0,-0.23355 -0.2336,-0.46711 -0.4671,-0.46711 h -6.8899 c -0.2336,0 -0.4671,0.23356 -0.4671,0.46711 v 39.12067 c 0,0.23357 0.2335,0.46712 0.4671,0.46712 h 6.8899 c 0.2335,0 0.4671,-0.23355 0.4671,-0.46712 v -12.37847 c 2.5691,2.91946 5.8389,4.43757 9.6926,4.43757 7.2402,0 14.4804,-5.48858 14.4804,-16.11538 0,-10.7436 -7.2402,-16.23217 -14.4804,-16.23217 m 6.5396,16.11538 c 0,5.3718 -3.2699,9.1087 -8.0577,9.1087 -4.6711,0 -8.2913,-3.97045 -8.2913,-9.1087 0,-5.25501 3.5034,-9.10868 8.2913,-9.10868 4.6711,0 8.0577,3.85367 8.0577,9.10868"
       id="path10-4"
       style="fill:#1dd15d;fill-opacity:1;stroke-width:1.16778159"
       inkscape:connector-curvature="0"
       inkscape:export-filename="G:\Users\suitedoalex\sites\listen-on-spotify.png"
       inkscape:export-xdpi="45.858719"
       inkscape:export-ydpi="45.858719" />
    <path
       class="st0"
       d="m 684.8039,-597.71954 c -9.2255,0 -16.5825,7.12347 -16.5825,16.23217 0,8.99191 7.2402,16.11538 16.4657,16.11538 9.3422,0 16.5825,-7.12347 16.5825,-16.23217 0.1168,-8.99191 -7.1235,-16.11538 -16.4657,-16.11538 m 0,25.34086 c -4.9047,0 -8.6416,-3.97047 -8.6416,-9.22548 0,-5.25501 3.6201,-9.10868 8.5248,-9.10868 5.0215,0 8.7583,3.97044 8.7583,9.22547 0,5.25501 -3.62,9.10869 -8.6415,9.10869"
       id="path12-2"
       style="fill:#1dd15d;fill-opacity:1;stroke-width:1.16778159"
       inkscape:connector-curvature="0"
       inkscape:export-filename="G:\Users\suitedoalex\sites\listen-on-spotify.png"
       inkscape:export-xdpi="45.858719"
       inkscape:export-ydpi="45.858719" />
    <path
       class="st0"
       d="m 721.12191,-597.13566 h -7.5906 v -7.70736 c 0,-0.23355 -0.2336,-0.46711 -0.4671,-0.46711 h -6.8899 c -0.2336,0 -0.4671,0.23356 -0.4671,0.46711 v 7.70736 h -3.2698 c -0.2336,0 -0.4671,0.23357 -0.4671,0.46712 v 5.9557 c 0,0.23354 0.2335,0.4671 0.4671,0.4671 h 3.2698 v 15.29794 c 0,6.18924 3.0362,9.34226 9.1086,9.34226 2.4524,0 4.5544,-0.46712 6.4228,-1.63489 0.1169,-0.11679 0.2337,-0.23357 0.2337,-0.46713 v -5.60534 c 0,-0.11679 -0.1169,-0.35035 -0.2337,-0.46712 -0.1167,-0.11678 -0.3503,-0.11678 -0.4671,0 -1.2845,0.70067 -2.5691,0.93423 -4.0872,0.93423 -2.2188,0 -3.153,-1.05101 -3.153,-3.26979 v -14.13016 h 7.5906 c 0.2335,0 0.4671,-0.23356 0.4671,-0.4671 v -5.9557 c 0.1168,-0.23355 -0.1168,-0.46712 -0.4671,-0.46712"
       id="path14-6"
       style="fill:#1dd15d;fill-opacity:1;stroke-width:1.16778159"
       inkscape:connector-curvature="0"
       inkscape:export-filename="G:\Users\suitedoalex\sites\listen-on-spotify.png"
       inkscape:export-xdpi="45.858719"
       inkscape:export-ydpi="45.858719" />
    <path
       class="st0"
       d="m 747.51371,-597.13566 v -0.93422 c 0,-2.80267 1.051,-4.08723 3.5034,-4.08723 1.4013,0 2.5691,0.23355 3.8537,0.70067 0.1168,0 0.3503,0 0.4671,-0.11679 0.1168,-0.11677 0.2336,-0.23356 0.2336,-0.46711 v -5.83891 c 0,-0.23356 -0.1169,-0.46711 -0.3504,-0.46711 -1.4014,-0.35033 -3.153,-0.81745 -5.7221,-0.81745 -6.3061,0 -9.6926,3.62013 -9.6926,10.39326 v 1.40134 h -3.2698 c -0.2336,0 -0.4671,0.23355 -0.4671,0.46712 v 5.95569 c 0,0.23355 0.2335,0.4671 0.4671,0.4671 h 3.2698 v 23.58919 c 0,0.23355 0.2336,0.46711 0.4671,0.46711 h 6.8899 c 0.2336,0 0.4671,-0.23356 0.4671,-0.46711 v -23.35563 h 6.4228 l 9.8094,23.58918 c -1.1678,2.45235 -2.2188,2.91946 -3.7369,2.91946 -1.1678,0 -2.4524,-0.35033 -3.7369,-1.051 -0.1168,-0.11678 -0.2336,-0.11678 -0.3503,0 -0.1169,0 -0.2336,0.11677 -0.3504,0.23355 l -2.3356,5.13825 c -0.1167,0.23355 0,0.4671 0.2336,0.70066 2.4524,1.28455 4.6711,1.86846 7.3571,1.86846 5.1382,0 7.9408,-2.33557 10.3932,-8.75836 l 11.9114,-30.82944 c 0.1168,-0.11677 0,-0.35033 0,-0.46711 -0.1169,-0.11678 -0.23361,-0.23357 -0.4671,-0.23357 h -7.1235 c -0.23361,0 -0.35041,0.11679 -0.4671,0.35035 l -7.357,21.02006 -8.0578,-21.02006 c -0.1168,-0.23356 -0.23351,-0.35035 -0.4671,-0.35035 z"
       id="path16-9"
       style="fill:#1dd15d;fill-opacity:1;stroke-width:1.16778159"
       inkscape:connector-curvature="0"
       inkscape:export-filename="G:\Users\suitedoalex\sites\listen-on-spotify.png"
       inkscape:export-xdpi="45.858719"
       inkscape:export-ydpi="45.858719" />
    <path
       class="st0"
       d="m 732.2158,-597.13566 h -6.8899 c -0.2336,0 -0.46709,0.23357 -0.46709,0.46712 v 30.01198 c 0,0.23356 0.2335,0.46712 0.46709,0.46712 h 6.8899 c 0.23351,0 0.46721,-0.23356 0.46721,-0.46712 v -30.01198 c 0.1167,-0.23355 -0.1169,-0.46712 -0.46721,-0.46712"
       id="path18-8"
       style="fill:#1dd15d;fill-opacity:1;stroke-width:1.16778159"
       inkscape:connector-curvature="0"
       inkscape:export-filename="G:\Users\suitedoalex\sites\listen-on-spotify.png"
       inkscape:export-xdpi="45.858719"
       inkscape:export-ydpi="45.858719" />
    <path
       class="st0"
       d="m 728.8293,-610.7987 c -2.686,0 -4.9047,2.21879 -4.9047,4.90469 0,2.68589 2.2187,4.90468 4.9047,4.90468 2.6858,0 4.9046,-2.21879 4.9046,-4.90468 0,-2.6859 -2.2188,-4.90469 -4.9046,-4.90469"
       id="path20-4"
       style="fill:#1dd15d;fill-opacity:1;stroke-width:1.16778159"
       inkscape:connector-curvature="0"
       inkscape:export-filename="G:\Users\suitedoalex\sites\listen-on-spotify.png"
       inkscape:export-xdpi="45.858719"
       inkscape:export-ydpi="45.858719" />
    <path
       d="m 477.16849,-348.75079 c -1.16844,0 -2.30844,-0.0138 -3.46764,-0.0414 -2.14393,-0.0553 -4.68663,-0.17972 -7.16724,-0.62349 -2.34065,-0.42163 -4.42052,-1.10871 -6.35276,-2.09507 -1.99976,-1.01193 -3.79703,-2.31929 -5.35698,-3.88836 -1.5879,-1.55356 -2.89281,-3.33896 -3.91318,-5.34128 -0.99425,-1.93069 -1.67379,-4.00379 -2.08217,-6.33844 -0.46824,-2.57339 -0.58782,-5.18452 -0.63842,-7.17163 -0.0235,-0.80734 -0.0567,-3.49243 -0.0567,-3.49243 v -88.3556 c 0,0 0.0332,-2.64446 0.0553,-3.42138 0.0511,-2.00368 0.17003,-4.61262 0.63454,-7.16042 0.41029,-2.34723 1.08976,-4.41839 2.08411,-6.35724 1.01845,-2.00576 2.32529,-3.8003 3.89249,-5.34668 1.58598,-1.58385 3.39093,-2.89467 5.37726,-3.91089 1.96982,-0.99673 4.04627,-1.6791 6.33973,-2.08029 2.58182,-0.46172 5.1997,-0.57785 7.19177,-0.62762 l 3.46039,-0.0414 H 806.7908 l 3.5014,0.0553 c 1.966,0.0553 4.5835,0.16452 7.1263,0.6221 2.3103,0.40367 4.4002,1.08936 6.4072,2.09563 1.9659,1.00503 3.767,2.31584 5.3362,3.88448 1.5691,1.55357 2.8832,3.35778 3.9242,5.37115 0.9886,1.95531 1.6628,4.02645 2.0524,6.30678 0.4455,2.41303 0.5841,4.89117 0.6664,7.21821 0.011,1.08382 0.011,2.24659 0.011,3.40437 0.029,1.43442 0.029,2.79942 0.029,4.17605 v 80.04843 c 0,1.38961 0,2.7455 -0.029,4.11245 0,1.24418 0,2.38331 -0.015,3.55602 -0.079,2.25239 -0.2169,4.72901 -0.6553,7.08923 -0.3969,2.34584 -1.071,4.41879 -2.0708,6.38751 -1.0333,1.98698 -2.3479,3.78343 -3.8944,5.3001 -1.5841,1.59878 -3.3817,2.90227 -5.3661,3.91075 -1.9887,1.00779 -4.0182,1.67689 -6.3961,2.10295 -2.4565,0.44514 -4.9992,0.56403 -7.1676,0.62349 -1.1233,0.0277 -2.2993,0.0414 -3.4412,0.0414 l -4.1569,0.007 z"
       id="Path-Copy-5-5-3"
       inkscape:connector-curvature="0"
       style="fill:#ffffff;fill-opacity:1;fill-rule:evenodd;stroke:#000000;stroke-width:3.65767622"
       inkscape:export-filename="G:\Users\suitedoalex\sites\listen-on-spotify-1.png"
       inkscape:export-xdpi="45.430252"
       inkscape:export-ydpi="45.430252" />
    <path
       d="m 599.7318,-444.21481 v -21.18379 h 3.3292 v 18.38893 h 10.0874 v 2.79486 z m 18.3203,-17.91255 c -1.032,0 -1.9309,-0.79352 -1.9309,-1.81029 0,-1.01608 0.8988,-1.84208 1.9309,-1.84208 1.0653,0 1.9309,0.8253 1.9309,1.84208 0,1.0161 -0.8655,1.81029 -1.9309,1.81029 z m -1.4649,17.91255 v -15.33998 h 2.9963 v 15.33998 z m 6.2021,-2.00079 1.4316,-2.09618 c 1.0986,1.14327 3.2293,2.19143 5.3932,2.19143 2.2638,0 3.4624,-0.8889 3.4624,-2.19143 0,-1.52454 -1.8311,-2.03272 -3.8952,-2.47731 -2.7299,-0.60413 -5.9259,-1.30225 -5.9259,-4.60514 0,-2.44552 2.1973,-4.5417 6.1257,-4.5417 2.7632,0 4.7607,0.95249 6.1257,2.19143 l -1.3317,2.00093 c -0.9322,-1.07968 -2.7299,-1.87388 -4.7608,-1.87388 -2.0307,0 -3.2958,0.76171 -3.2958,2.00092 0,1.33405 1.7312,1.7785 3.7287,2.22322 2.7965,0.60274 6.1257,1.33405 6.1257,4.85924 0,2.63601 -2.2639,4.7004 -6.4919,4.7004 -2.6967,0 -5.0604,-0.79352 -6.6917,-2.38193 z m 21.25,2.38193 c -2.5302,0 -3.8286,-1.36585 -3.8286,-3.77943 v -9.43272 h -2.6634 v -2.50897 h 2.6634 v -4.19222 h 2.9963 v 4.19222 h 3.2626 v 2.50897 h -3.2626 v 8.79749 c 0,1.07968 0.5326,1.87389 1.5647,1.87389 0.6991,0 1.3317,-0.28616 1.6313,-0.60274 l 0.7657,2.15964 c -0.6326,0.57094 -1.5647,0.98428 -3.1294,0.98428 z m 4.6041,-8.06703 c 0,-4.4463 3.3624,-8.03523 8.0565,-8.03523 4.8273,0 7.8236,3.58893 7.8236,8.28932 v 0.69813 H 651.806 c 0.2329,2.60435 2.2306,4.76398 5.4599,4.76398 1.6979,0 3.5622,-0.63592 4.7607,-1.81028 l 1.3982,1.87387 c -1.598,1.49276 -3.8618,2.28668 -6.4586,2.28668 -4.794,0 -8.3228,-3.23944 -8.3228,-8.06703 z m 8.0565,-5.68497 c -3.2292,0 -4.7607,2.47731 -4.9272,4.57335 h 9.8211 c -0.066,-2.03257 -1.4981,-4.57335 -4.8939,-4.57335 z m 22.282,13.37086 v -9.81372 c 0,-2.54077 -1.3649,-3.36663 -3.429,-3.36663 -1.8643,0 -3.5622,1.07967 -4.4278,2.22323 v 10.95712 h -2.9963 v -15.33998 h 2.9963 v 2.15963 c 1.0653,-1.23866 3.196,-2.54077 5.6929,-2.54077 3.3957,0 5.1602,1.71504 5.1602,4.95449 v 10.76663 z m 23.1574,0.38155 c -4.9937,0 -8.1232,-3.62058 -8.1232,-8.06703 0,-4.41464 3.1295,-8.03523 8.1232,-8.03523 5.0271,0 8.1232,3.62059 8.1232,8.03523 0,4.44645 -3.0961,8.06703 -8.1232,8.06703 z m 0,-2.54076 c 3.2294,0 4.9938,-2.60436 4.9938,-5.52627 0,-2.8901 -1.7644,-5.49446 -4.9938,-5.49446 -3.196,0 -4.9937,2.60436 -4.9937,5.49446 0,2.92191 1.7977,5.52627 4.9937,5.52627 z m 22.6149,2.15963 v -9.81372 c 0,-2.54078 -1.365,-3.36664 -3.4291,-3.36664 -1.8642,0 -3.5622,1.07968 -4.4277,2.22322 v 10.95714 h -2.9963 v -15.33998 h 2.9963 v 2.15962 c 1.0652,-1.23865 3.1959,-2.54077 5.6929,-2.54077 3.3957,0 5.1602,1.71505 5.1602,4.95449 v 10.76664 z"
       id="Listenon-4-3-5"
       inkscape:connector-curvature="0"
       style="fill:#000000;fill-rule:nonzero;stroke:none;stroke-width:3.65767622"
       inkscape:export-filename="G:\Users\suitedoalex\sites\listen-on-spotify-1.png"
       inkscape:export-xdpi="45.430252"
       inkscape:export-ydpi="45.430252" />
    <path
       d="m 565.4476,-426.86837 c -14.14829,-8.4024 -37.48565,-9.17491 -50.99192,-5.07572 -2.16939,0.65803 -4.46296,-0.56542 -5.12021,-2.73487 -0.65735,-2.17041 0.5661,-4.46247 2.73645,-5.12176 15.50428,-4.70619 41.27832,-3.7974 57.56608,5.87132 1.9509,1.15848 2.5908,3.67782 1.4346,5.62537 -1.1572,1.95089 -3.6789,2.594 -5.625,1.43566 z m -0.4632,12.44491 c -0.9927,1.61066 -3.09872,2.11594 -4.70726,1.12668 -11.7955,-7.25029 -29.78206,-9.3509 -43.73692,-5.11499 -1.80983,0.54605 -3.72081,-0.47279 -4.27064,-2.27991 -0.54509,-1.80932 0.47541,-3.71707 2.28205,-4.26742 15.94142,-4.83781 35.75925,-2.49487 49.30687,5.83095 1.6086,0.9912 2.1149,3.09761 1.1259,4.70455 z m -5.37078,11.95165 c -0.78878,1.29394 -2.47281,1.69872 -3.76164,0.911 -10.30703,-6.29943 -23.28027,-7.72196 -38.55862,-4.23229 -1.47224,0.33731 -2.93982,-0.58477 -3.2758,-2.05719 -0.33691,-1.47187 0.58227,-2.93933 2.05773,-3.2754 16.71972,-3.82185 31.06149,-2.17717 42.63052,4.89228 1.28995,0.78799 1.69611,2.47276 0.90781,3.76215 z m -20.12968,-63.30792 c -24.24044,0 -43.89212,19.65122 -43.89212,43.89157 0,24.24309 19.65168,43.89266 43.89212,43.89266 24.24146,0 43.89206,-19.64957 43.89206,-43.89266 0,-24.24035 -19.6506,-43.89157 -43.89206,-43.89157 z"
       id="Spotify_Icon_RGB_Green-4-6-9"
       inkscape:connector-curvature="0"
       style="fill:#000000;fill-opacity:1;fill-rule:evenodd;stroke:none;stroke-width:3.65767622"
       inkscape:export-filename="G:\Users\suitedoalex\sites\listen-on-spotify-1.png"
       inkscape:export-xdpi="45.430252"
       inkscape:export-ydpi="45.430252" />
    <path
       class="st0"
       d="m 783.4819,-388.24433 c -2.6858,0 -4.7879,-2.21878 -4.7879,-4.78791 0,-2.6859 2.1021,-4.90468 4.9047,-4.90468 2.6859,0 4.7879,2.21878 4.7879,4.78791 0,2.6859 -2.102,4.90468 -4.9047,4.90468 m 0.1168,-9.22547 c -2.4523,0 -4.3207,1.98523 -4.3207,4.43756 0,2.45235 1.8684,4.3208 4.3207,4.3208 2.4524,0 4.3208,-1.98523 4.3208,-4.43757 0,-2.33556 -1.8684,-4.32079 -4.3208,-4.32079 m 1.0511,4.90469 1.4013,1.86844 h -1.1678 l -1.2846,-1.75167 h -1.0509 v 1.75167 h -0.9343 v -5.13825 h 2.2188 c 1.1678,0 1.9852,0.5839 1.9852,1.63491 0,0.81744 -0.4671,1.40133 -1.1677,1.6349 m -0.8175,-2.33558 h -1.2845 v 1.6349 h 1.2845 c 0.5839,0 1.051,-0.35034 1.051,-0.81745 -0.1168,-0.58389 -0.4671,-0.81745 -1.051,-0.81745"
       id="path4-2-9"
       style="fill:#000000;fill-opacity:1;stroke-width:1.16778171"
       inkscape:connector-curvature="0"
       inkscape:export-filename="G:\Users\suitedoalex\sites\listen-on-spotify-1.png"
       inkscape:export-xdpi="45.430252"
       inkscape:export-ydpi="45.430252" />
    <path
       class="st0"
       d="m 618.2408,-412.30064 c -7.7073,-1.86844 -9.1087,-3.153 -9.1087,-5.8389 0,-2.56911 2.4524,-4.3208 5.9557,-4.3208 3.5034,0 6.89,1.28457 10.51,3.97047 0.1169,0.11677 0.2336,0.11677 0.3504,0.11677 0.1168,0 0.2336,-0.11677 0.3504,-0.23356 l 3.7368,-5.25501 c 0.1168,-0.23356 0.1168,-0.46712 -0.1167,-0.70068 -4.3209,-3.38656 -9.1088,-5.13823 -14.7141,-5.13823 -8.2913,0 -14.1302,5.02146 -14.1302,12.14493 0,7.59058 5.0215,10.39326 13.6631,12.49526 7.357,1.75168 8.6415,3.153 8.6415,5.60536 0,2.80267 -2.5691,4.55434 -6.5395,4.55434 -4.4376,0 -8.1745,-1.51812 -12.2617,-5.02146 -0.1169,-0.11678 -0.2336,-0.11678 -0.3504,-0.11678 -0.1167,0 -0.2335,0.11678 -0.3503,0.23357 l -4.204,5.02146 c -0.2336,0.23354 -0.1168,0.4671 0,0.70066 4.7879,4.20401 10.6268,6.53957 16.9328,6.53957 8.9919,0 14.7141,-4.90468 14.7141,-12.49526 0.1167,-6.53957 -3.737,-10.04292 -13.0792,-12.26171"
       id="path8-8-2"
       style="fill:#000000;fill-opacity:1;stroke-width:1.16778171"
       inkscape:connector-curvature="0"
       inkscape:export-filename="G:\Users\suitedoalex\sites\listen-on-spotify-1.png"
       inkscape:export-xdpi="45.430252"
       inkscape:export-ydpi="45.430252" />
    <path
       class="st0"
       d="m 651.6394,-419.89121 c -3.8537,0 -7.0067,1.51811 -9.6926,4.67112 v -3.50334 c 0,-0.23355 -0.2336,-0.46711 -0.4671,-0.46711 h -6.8899 c -0.2336,0 -0.4671,0.23356 -0.4671,0.46711 v 39.12067 c 0,0.23357 0.2335,0.46713 0.4671,0.46713 h 6.8899 c 0.2335,0 0.4671,-0.23356 0.4671,-0.46713 v -12.37847 c 2.5691,2.91946 5.8389,4.43757 9.6926,4.43757 7.2402,0 14.4805,-5.48858 14.4805,-16.11538 0,-10.7436 -7.2403,-16.23217 -14.4805,-16.23217 m 6.5396,16.11538 c 0,5.3718 -3.2698,9.1087 -8.0577,9.1087 -4.6711,0 -8.2913,-3.97045 -8.2913,-9.1087 0,-5.25501 3.5034,-9.10868 8.2913,-9.10868 4.6711,0 8.0577,3.85367 8.0577,9.10868"
       id="path10-4-3"
       style="fill:#000000;fill-opacity:1;stroke-width:1.16778171"
       inkscape:connector-curvature="0"
       inkscape:export-filename="G:\Users\suitedoalex\sites\listen-on-spotify-1.png"
       inkscape:export-xdpi="45.430252"
       inkscape:export-ydpi="45.430252" />
    <path
       class="st0"
       d="m 684.8044,-419.89121 c -9.2254,0 -16.5825,7.12347 -16.5825,16.23217 0,8.99191 7.2402,16.11538 16.4657,16.11538 9.3423,0 16.5825,-7.12347 16.5825,-16.23217 0.1169,-8.99191 -7.1234,-16.11538 -16.4657,-16.11538 m 0,25.34086 c -4.9047,0 -8.6416,-3.97046 -8.6416,-9.22548 0,-5.25501 3.6201,-9.10868 8.5248,-9.10868 5.0215,0 8.7584,3.97044 8.7584,9.22547 0,5.25501 -3.6201,9.10869 -8.6416,9.10869"
       id="path12-2-4"
       style="fill:#000000;fill-opacity:1;stroke-width:1.16778171"
       inkscape:connector-curvature="0"
       inkscape:export-filename="G:\Users\suitedoalex\sites\listen-on-spotify-1.png"
       inkscape:export-xdpi="45.430252"
       inkscape:export-ydpi="45.430252" />
    <path
       class="st0"
       d="m 721.1224,-419.30733 h -7.5906 v -7.70736 c 0,-0.23355 -0.2336,-0.46711 -0.4671,-0.46711 h -6.8899 c -0.2336,0 -0.4671,0.23356 -0.4671,0.46711 v 7.70736 h -3.2698 c -0.2336,0 -0.4671,0.23357 -0.4671,0.46712 v 5.9557 c 0,0.23354 0.2335,0.4671 0.4671,0.4671 h 3.2698 v 15.29794 c 0,6.18924 3.0362,9.34226 9.1087,9.34226 2.4523,0 4.5543,-0.46712 6.4228,-1.63489 0.1168,-0.11678 0.2336,-0.23357 0.2336,-0.46713 v -5.60534 c 0,-0.11679 -0.1168,-0.35035 -0.2336,-0.46712 -0.1168,-0.11678 -0.3503,-0.11678 -0.4671,0 -1.2846,0.70067 -2.5692,0.93423 -4.0873,0.93423 -2.2188,0 -3.153,-1.05101 -3.153,-3.26979 v -14.13016 h 7.5906 c 0.2336,0 0.4671,-0.23356 0.4671,-0.4671 v -5.9557 c 0.1168,-0.23355 -0.1168,-0.46712 -0.4671,-0.46712"
       id="path14-6-3"
       style="fill:#000000;fill-opacity:1;stroke-width:1.16778171"
       inkscape:connector-curvature="0"
       inkscape:export-filename="G:\Users\suitedoalex\sites\listen-on-spotify-1.png"
       inkscape:export-xdpi="45.430252"
       inkscape:export-ydpi="45.430252" />
    <path
       class="st0"
       d="m 747.5142,-419.30733 v -0.93422 c 0,-2.80267 1.0511,-4.08723 3.5034,-4.08723 1.4013,0 2.5692,0.23355 3.8537,0.70067 0.1168,0 0.3503,0 0.4671,-0.11679 0.1169,-0.11677 0.2336,-0.23356 0.2336,-0.46711 v -5.8389 c 0,-0.23356 -0.1169,-0.46712 -0.3504,-0.46712 -1.4014,-0.35033 -3.153,-0.81745 -5.7221,-0.81745 -6.306,0 -9.6926,3.62013 -9.6926,10.39326 v 1.40134 h -3.2697 c -0.2336,0 -0.4672,0.23355 -0.4672,0.46712 v 5.95569 c 0,0.23355 0.2336,0.4671 0.4672,0.4671 h 3.2697 v 23.58919 c 0,0.23356 0.2336,0.46711 0.4671,0.46711 h 6.8899 c 0.2336,0 0.4672,-0.23355 0.4672,-0.46711 v -23.35563 h 6.4228 l 9.8093,23.58919 c -1.1678,2.45234 -2.2188,2.91945 -3.7369,2.91945 -1.1678,0 -2.4524,-0.35033 -3.7369,-1.051 -0.1168,-0.11678 -0.2336,-0.11678 -0.3503,0 -0.1168,0 -0.2336,0.11677 -0.3504,0.23355 l -2.3355,5.13825 c -0.1168,0.23355 0,0.4671 0.2336,0.70066 2.4523,1.28455 4.671,1.86846 7.357,1.86846 5.1382,0 7.9408,-2.33557 10.3932,-8.75836 l 11.9114,-30.82944 c 0.1168,-0.11677 0,-0.35033 0,-0.46711 -0.1168,-0.11678 -0.2336,-0.23357 -0.4671,-0.23357 h -7.1235 c -0.2335,0 -0.3503,0.11679 -0.4671,0.35035 l -7.357,21.02006 -8.0577,-21.02006 c -0.1169,-0.23356 -0.2336,-0.35035 -0.4671,-0.35035 z"
       id="path16-9-6"
       style="fill:#000000;fill-opacity:1;stroke-width:1.16778171"
       inkscape:connector-curvature="0"
       inkscape:export-filename="G:\Users\suitedoalex\sites\listen-on-spotify-1.png"
       inkscape:export-xdpi="45.430252"
       inkscape:export-ydpi="45.430252" />
    <path
       class="st0"
       d="m 732.2163,-419.30733 h -6.8898 c -0.2337,0 -0.4672,0.23357 -0.4672,0.46712 v 30.01199 c 0,0.23355 0.2335,0.46711 0.4672,0.46711 h 6.8898 c 0.2336,0 0.4672,-0.23356 0.4672,-0.46711 v -30.01199 c 0.1168,-0.23355 -0.1169,-0.46712 -0.4672,-0.46712"
       id="path18-8-8"
       style="fill:#000000;fill-opacity:1;stroke-width:1.16778171"
       inkscape:connector-curvature="0"
       inkscape:export-filename="G:\Users\suitedoalex\sites\listen-on-spotify-1.png"
       inkscape:export-xdpi="45.430252"
       inkscape:export-ydpi="45.430252" />
    <path
       class="st0"
       d="m 728.8298,-432.97037 c -2.6859,0 -4.9047,2.21879 -4.9047,4.90469 0,2.68589 2.2188,4.90468 4.9047,4.90468 2.6859,0 4.9046,-2.21879 4.9046,-4.90468 0,-2.6859 -2.2187,-4.90469 -4.9046,-4.90469"
       id="path20-4-5"
       style="fill:#000000;fill-opacity:1;stroke-width:1.16778171"
       inkscape:connector-curvature="0"
       inkscape:export-filename="G:\Users\suitedoalex\sites\listen-on-spotify-1.png"
       inkscape:export-xdpi="45.430252"
       inkscape:export-ydpi="45.430252" />
    <path
       d="m 477.1685,-171.45575 c -1.16843,0 -2.30844,-0.0138 -3.46763,-0.0414 -2.14394,-0.0553 -4.68664,-0.17972 -7.16724,-0.62348 -2.34066,-0.42165 -4.42052,-1.10872 -6.35276,-2.09508 -1.99977,-1.01193 -3.79703,-2.3193 -5.35699,-3.88836 -1.58789,-1.55357 -2.8928,-3.33896 -3.91317,-5.34128 -0.99425,-1.9307 -1.67379,-4.0038 -2.08218,-6.33844 -0.46823,-2.57338 -0.58782,-5.18453 -0.63841,-7.17163 -0.0235,-0.80733 -0.0567,-3.49243 -0.0567,-3.49243 v -88.35561 c 0,0 0.0332,-2.64445 0.0553,-3.42137 0.0511,-2.00368 0.17004,-4.61262 0.63454,-7.16042 0.4103,-2.34724 1.08977,-4.41839 2.08412,-6.35725 1.01844,-2.00575 2.32528,-3.80029 3.89248,-5.34668 1.58599,-1.58385 3.39094,-2.89467 5.37727,-3.91088 1.96981,-0.99673 4.04627,-1.6791 6.33973,-2.08029 2.58181,-0.46172 5.19969,-0.57785 7.19176,-0.62762 l 3.46039,-0.0414 h 329.62186 l 3.5014,0.0553 c 1.9659,0.0553 4.5835,0.16452 7.1262,0.62211 2.3104,0.40367 4.4003,1.08936 6.4072,2.09562 1.966,1.00503 3.7671,2.31585 5.3362,3.88449 1.5692,1.55357 2.8833,3.35777 3.9243,5.37115 0.9886,1.9553 1.6628,4.02645 2.0523,6.30678 0.4456,2.41302 0.5841,4.89117 0.6664,7.2182 0.011,1.08383 0.011,2.2466 0.011,3.40438 0.029,1.43441 0.029,2.79941 0.029,4.17605 v 80.04842 c 0,1.38962 0,2.74551 -0.029,4.11245 0,1.24418 0,2.38332 -0.015,3.55602 -0.078,2.2524 -0.2168,4.72902 -0.6553,7.08924 -0.3969,2.34584 -1.071,4.41879 -2.0707,6.38751 -1.0334,1.98697 -2.3479,3.78343 -3.8944,5.3001 -1.5841,1.59877 -3.3818,2.90227 -5.3661,3.91075 -1.9887,1.00779 -4.0183,1.67688 -6.3962,2.10295 -2.4564,0.44514 -4.9992,0.56403 -7.1675,0.62349 -1.1233,0.0277 -2.2993,0.0414 -3.4412,0.0414 l -4.1569,0.007 z"
       id="Path-Copy-5-5-3-8"
       inkscape:connector-curvature="0"
       style="fill:#000000;fill-opacity:1;fill-rule:evenodd;stroke:#000000;stroke-width:3.65767622"
       inkscape:export-filename="G:\Users\suitedoalex\sites\listen-on-spotify-3.png"
       inkscape:export-xdpi="45.430252"
       inkscape:export-ydpi="45.430252" />
    <path
       d="m 599.73187,-266.91978 v -21.18378 h 3.3292 v 18.38892 h 10.0873 v 2.79486 z m 18.3203,-17.91255 c -1.032,0 -1.931,-0.79351 -1.931,-1.81028 0,-1.01608 0.8989,-1.84208 1.931,-1.84208 1.0653,0 1.9309,0.8253 1.9309,1.84208 0,1.0161 -0.8656,1.81028 -1.9309,1.81028 z m -1.4649,17.91255 v -15.33997 h 2.9963 v 15.33997 z m 6.2021,-2.00078 1.4316,-2.09618 c 1.0986,1.14327 3.2293,2.19143 5.3932,2.19143 2.2638,0 3.4623,-0.8889 3.4623,-2.19143 0,-1.52454 -1.831,-2.03272 -3.8951,-2.47732 -2.73,-0.60412 -5.926,-1.30224 -5.926,-4.60513 0,-2.44552 2.1974,-4.5417 6.1258,-4.5417 2.7632,0 4.7606,0.95249 6.1257,2.19143 l -1.3318,2.00093 c -0.9321,-1.07969 -2.7299,-1.87389 -4.7607,-1.87389 -2.0308,0 -3.2959,0.76172 -3.2959,2.00093 0,1.33405 1.7312,1.77849 3.7287,2.22322 2.7966,0.60274 6.1257,1.33405 6.1257,4.85924 0,2.63601 -2.2638,4.7004 -6.4919,4.7004 -2.6966,0 -5.0603,-0.79352 -6.6916,-2.38193 z m 21.2499,2.38193 c -2.5301,0 -3.8285,-1.36585 -3.8285,-3.77943 v -9.43272 h -2.6634 v -2.50897 h 2.6634 v -4.19223 h 2.9962 v 4.19223 h 3.2626 v 2.50897 h -3.2626 v 8.79749 c 0,1.07968 0.5326,1.87389 1.5647,1.87389 0.6992,0 1.3317,-0.28616 1.6313,-0.60274 l 0.7658,2.15963 c -0.6326,0.57094 -1.5647,0.98429 -3.1295,0.98429 z m 4.6041,-8.06703 c 0,-4.44631 3.3625,-8.03523 8.0566,-8.03523 4.8273,0 7.8236,3.58892 7.8236,8.28931 v 0.69814 h -12.7175 c 0.2329,2.60435 2.2305,4.76398 5.4598,4.76398 1.698,0 3.5623,-0.63592 4.7608,-1.81029 l 1.3982,1.87388 c -1.598,1.49275 -3.8618,2.28668 -6.4586,2.28668 -4.794,0 -8.3229,-3.23945 -8.3229,-8.06703 z m 8.0566,-5.68497 c -3.2293,0 -4.7607,2.47731 -4.9272,4.57335 h 9.8211 c -0.066,-2.03257 -1.4981,-4.57335 -4.8939,-4.57335 z m 22.282,13.37085 v -9.81371 c 0,-2.54077 -1.3649,-3.36663 -3.429,-3.36663 -1.8644,0 -3.5622,1.07967 -4.4279,2.22322 v 10.95712 h -2.9962 v -15.33997 h 2.9962 v 2.15963 c 1.0654,-1.23866 3.1961,-2.54077 5.693,-2.54077 3.3957,0 5.1602,1.71504 5.1602,4.95449 v 10.76662 z m 23.1574,0.38156 c -4.9938,0 -8.1232,-3.62058 -8.1232,-8.06703 0,-4.41465 3.1294,-8.03524 8.1232,-8.03524 5.027,0 8.1232,3.62059 8.1232,8.03524 0,4.44645 -3.0962,8.06703 -8.1232,8.06703 z m 0,-2.54077 c 3.2293,0 4.9938,-2.60435 4.9938,-5.52626 0,-2.8901 -1.7645,-5.49446 -4.9938,-5.49446 -3.1961,0 -4.9938,2.60436 -4.9938,5.49446 0,2.92191 1.7977,5.52626 4.9938,5.52626 z m 22.6149,2.15963 v -9.81372 c 0,-2.54077 -1.365,-3.36663 -3.4291,-3.36663 -1.8643,0 -3.5622,1.07968 -4.4277,2.22322 v 10.95713 h -2.9964 v -15.33998 h 2.9964 v 2.15963 c 1.0652,-1.23865 3.1959,-2.54078 5.6929,-2.54078 3.3957,0 5.1601,1.71506 5.1601,4.95449 v 10.76664 z"
       id="Listenon-4-3-5-0"
       inkscape:connector-curvature="0"
       style="fill:#ffffff;fill-rule:nonzero;stroke:none;stroke-width:3.65767622"
       inkscape:export-filename="G:\Users\suitedoalex\sites\listen-on-spotify-3.png"
       inkscape:export-xdpi="45.430252"
       inkscape:export-ydpi="45.430252" />
    <path
       d="m 565.44767,-249.57334 c -14.14833,-8.40239 -37.48569,-9.1749 -50.99198,-5.07572 -2.16938,0.65804 -4.46296,-0.56541 -5.1202,-2.73486 -0.65736,-2.17041 0.5661,-4.46248 2.73644,-5.12176 15.50429,-4.70619 41.27834,-3.7974 57.56614,5.87131 1.9508,1.15849 2.5908,3.67782 1.4346,5.62538 -1.1573,1.95089 -3.6789,2.59399 -5.625,1.43565 z m -0.4633,12.44491 c -0.9927,1.61066 -3.09866,2.11594 -4.7072,1.12668 -11.7955,-7.25029 -29.78206,-9.3509 -43.73694,-5.11499 -1.80982,0.54605 -3.72081,-0.47279 -4.27063,-2.2799 -0.5451,-1.80933 0.47541,-3.71708 2.28205,-4.26743 15.94143,-4.8378 35.75926,-2.49487 49.30692,5.83096 1.6085,0.9912 2.1149,3.0976 1.1258,4.70454 z m -5.37072,11.95165 c -0.78878,1.29395 -2.47281,1.69872 -3.76164,0.91101 -10.30703,-6.29944 -23.28027,-7.72197 -38.55864,-4.2323 -1.47224,0.33732 -2.93982,-0.58476 -3.2758,-2.05719 -0.3369,-1.47187 0.58227,-2.93932 2.05773,-3.27539 16.71974,-3.82186 31.06151,-2.17718 42.63054,4.89227 1.28995,0.788 1.69611,2.47276 0.90781,3.76215 z m -20.12968,-63.30791 c -24.24046,0 -43.89214,19.65122 -43.89214,43.89156 0,24.24309 19.65168,43.89267 43.89214,43.89267 24.2414,0 43.8921,-19.64958 43.8921,-43.89267 0,-24.24034 -19.6507,-43.89156 -43.8921,-43.89156 z"
       id="Spotify_Icon_RGB_Green-4-6-9-7"
       inkscape:connector-curvature="0"
       style="fill:#ffffff;fill-opacity:1;fill-rule:evenodd;stroke:none;stroke-width:3.65767622"
       inkscape:export-filename="G:\Users\suitedoalex\sites\listen-on-spotify-3.png"
       inkscape:export-xdpi="45.430252"
       inkscape:export-ydpi="45.430252" />
    <path
       class="st0"
       d="m 783.48197,-210.94929 c -2.6859,0 -4.7879,-2.21879 -4.7879,-4.78792 0,-2.68589 2.102,-4.90467 4.9047,-4.90467 2.6859,0 4.7879,2.21878 4.7879,4.7879 0,2.6859 -2.102,4.90469 -4.9047,4.90469 m 0.1168,-9.22548 c -2.4523,0 -4.3208,1.98523 -4.3208,4.43756 0,2.45236 1.8685,4.3208 4.3208,4.3208 2.4524,0 4.3208,-1.98523 4.3208,-4.43757 0,-2.33556 -1.8684,-4.32079 -4.3208,-4.32079 m 1.051,4.90469 1.4014,1.86844 h -1.1678 l -1.2846,-1.75167 h -1.0509 v 1.75167 h -0.9343 v -5.13824 h 2.2188 c 1.1678,0 1.9852,0.5839 1.9852,1.6349 0,0.81745 -0.4671,1.40133 -1.1678,1.6349 m -0.8174,-2.33557 h -1.2845 v 1.6349 h 1.2845 c 0.5839,0 1.051,-0.35035 1.051,-0.81745 -0.1168,-0.58389 -0.4671,-0.81745 -1.051,-0.81745"
       id="path4-2-9-8"
       style="fill:#ffffff;fill-opacity:1;stroke-width:1.16778183"
       inkscape:connector-curvature="0"
       inkscape:export-filename="G:\Users\suitedoalex\sites\listen-on-spotify-3.png"
       inkscape:export-xdpi="45.430252"
       inkscape:export-ydpi="45.430252" />
    <path
       class="st0"
       d="m 618.24087,-235.0056 c -7.7073,-1.86845 -9.1087,-3.15301 -9.1087,-5.8389 0,-2.56912 2.4524,-4.3208 5.9557,-4.3208 3.5033,0 6.8899,1.28457 10.51,3.97047 0.1169,0.11676 0.2336,0.11676 0.3504,0.11676 0.1168,0 0.2336,-0.11676 0.3503,-0.23356 l 3.7369,-5.25501 c 0.1168,-0.23356 0.1168,-0.46711 -0.1168,-0.70067 -4.3208,-3.38656 -9.1087,-5.13824 -14.7141,-5.13824 -8.2912,0 -14.1301,5.02147 -14.1301,12.14494 0,7.59057 5.0214,10.39325 13.663,12.49525 7.357,1.75168 8.6416,3.15302 8.6416,5.60536 0,2.80268 -2.5691,4.55435 -6.5396,4.55435 -4.4376,0 -8.1744,-1.51812 -12.2617,-5.02146 -0.1168,-0.11679 -0.2335,-0.11679 -0.3503,-0.11679 -0.1168,0 -0.2336,0.11679 -0.3503,0.23357 l -4.2041,5.02146 c -0.2335,0.23355 -0.1167,0.4671 0,0.70066 4.7879,4.20402 10.6269,6.53958 16.9329,6.53958 8.9919,0 14.714,-4.90469 14.714,-12.49527 0.1168,-6.53957 -3.7369,-10.04292 -13.0792,-12.26171"
       id="path8-8-2-4"
       style="fill:#ffffff;fill-opacity:1;stroke-width:1.16778183"
       inkscape:connector-curvature="0"
       inkscape:export-filename="G:\Users\suitedoalex\sites\listen-on-spotify-3.png"
       inkscape:export-xdpi="45.430252"
       inkscape:export-ydpi="45.430252" />
    <path
       class="st0"
       d="m 651.63947,-242.59618 c -3.8537,0 -7.0067,1.51811 -9.6927,4.67113 v -3.50335 c 0,-0.23355 -0.2335,-0.46711 -0.4671,-0.46711 h -6.8899 c -0.2335,0 -0.4671,0.23356 -0.4671,0.46711 v 39.12068 c 0,0.23357 0.2336,0.46712 0.4671,0.46712 h 6.8899 c 0.2336,0 0.4671,-0.23355 0.4671,-0.46712 v -12.37847 c 2.5692,2.91945 5.839,4.43756 9.6927,4.43756 7.2402,0 14.4805,-5.48858 14.4805,-16.11538 0,-10.74359 -7.2403,-16.23217 -14.4805,-16.23217 m 6.5395,16.11539 c 0,5.37179 -3.2697,9.1087 -8.0576,9.1087 -4.6712,0 -8.2913,-3.97046 -8.2913,-9.1087 0,-5.25502 3.5033,-9.10869 8.2913,-9.10869 4.6711,0 8.0576,3.85367 8.0576,9.10869"
       id="path10-4-3-5"
       style="fill:#ffffff;fill-opacity:1;stroke-width:1.16778183"
       inkscape:connector-curvature="0"
       inkscape:export-filename="G:\Users\suitedoalex\sites\listen-on-spotify-3.png"
       inkscape:export-xdpi="45.430252"
       inkscape:export-ydpi="45.430252" />
    <path
       class="st0"
       d="m 684.80437,-242.59618 c -9.2254,0 -16.5824,7.12347 -16.5824,16.23217 0,8.99192 7.2402,16.11538 16.4657,16.11538 9.3422,0 16.5825,-7.12346 16.5825,-16.23216 0.1168,-8.99192 -7.1235,-16.11539 -16.4658,-16.11539 m 0,25.34087 c -4.9046,0 -8.6416,-3.97047 -8.6416,-9.22548 0,-5.25502 3.6202,-9.10869 8.5249,-9.10869 5.0214,0 8.7584,3.97044 8.7584,9.22547 0,5.25501 -3.6202,9.1087 -8.6417,9.1087"
       id="path12-2-4-6"
       style="fill:#ffffff;fill-opacity:1;stroke-width:1.16778183"
       inkscape:connector-curvature="0"
       inkscape:export-filename="G:\Users\suitedoalex\sites\listen-on-spotify-3.png"
       inkscape:export-xdpi="45.430252"
       inkscape:export-ydpi="45.430252" />
    <path
       class="st0"
       d="m 721.12247,-242.01229 h -7.5906 v -7.70736 c 0,-0.23355 -0.2336,-0.46711 -0.4671,-0.46711 h -6.8899 c -0.2336,0 -0.4671,0.23356 -0.4671,0.46711 v 7.70736 h -3.2699 c -0.2335,0 -0.4671,0.23356 -0.4671,0.46711 v 5.9557 c 0,0.23356 0.2336,0.4671 0.4671,0.4671 h 3.2699 v 15.29794 c 0,6.18925 3.0361,9.34226 9.1087,9.34226 2.4523,0 4.5543,-0.46711 6.4228,-1.63489 0.1167,-0.11678 0.2335,-0.23356 0.2335,-0.46712 v -5.60535 c 0,-0.11678 -0.1168,-0.35034 -0.2335,-0.46711 -0.1169,-0.11678 -0.3504,-0.11678 -0.4671,0 -1.2847,0.70067 -2.5692,0.93423 -4.0873,0.93423 -2.2188,0 -3.153,-1.05101 -3.153,-3.26979 v -14.13017 h 7.5906 c 0.2335,0 0.4671,-0.23354 0.4671,-0.4671 v -5.9557 c 0.1168,-0.23355 -0.1169,-0.46711 -0.4671,-0.46711"
       id="path14-6-3-1"
       style="fill:#ffffff;fill-opacity:1;stroke-width:1.16778183"
       inkscape:connector-curvature="0"
       inkscape:export-filename="G:\Users\suitedoalex\sites\listen-on-spotify-3.png"
       inkscape:export-xdpi="45.430252"
       inkscape:export-ydpi="45.430252" />
    <path
       class="st0"
       d="m 747.51427,-242.01229 v -0.93422 c 0,-2.80268 1.0511,-4.08724 3.5034,-4.08724 1.4013,0 2.5691,0.23356 3.8537,0.70067 0.1167,0 0.3503,0 0.4671,-0.11678 0.1168,-0.11677 0.2335,-0.23356 0.2335,-0.46712 v -5.8389 c 0,-0.23356 -0.1168,-0.46711 -0.3503,-0.46711 -1.4014,-0.35033 -3.153,-0.81745 -5.7221,-0.81745 -6.306,0 -9.6926,3.62013 -9.6926,10.39325 v 1.40134 h -3.2698 c -0.2335,0 -0.4671,0.23356 -0.4671,0.46712 v 5.95569 c 0,0.23356 0.2336,0.4671 0.4671,0.4671 h 3.2698 v 23.5892 c 0,0.23355 0.2335,0.4671 0.4671,0.4671 h 6.8899 c 0.2335,0 0.4671,-0.23355 0.4671,-0.4671 v -23.35564 h 6.4228 l 9.8093,23.58919 c -1.1677,2.45235 -2.2187,2.91946 -3.7368,2.91946 -1.1679,0 -2.4524,-0.35034 -3.7369,-1.051 -0.1168,-0.11678 -0.2336,-0.11678 -0.3504,0 -0.1167,0 -0.2335,0.11677 -0.3503,0.23355 l -2.3355,5.13825 c -0.1169,0.23355 0,0.46709 0.2335,0.70065 2.4523,1.28456 4.6711,1.86847 7.357,1.86847 5.1383,0 7.9409,-2.33557 10.3933,-8.75837 l 11.9113,-30.82944 c 0.1168,-0.11677 0,-0.35033 0,-0.46711 -0.1167,-0.11678 -0.2335,-0.23356 -0.4671,-0.23356 h -7.1234 c -0.2336,0 -0.3503,0.11678 -0.4672,0.35034 l -7.357,21.02007 -8.0576,-21.02007 c -0.1169,-0.23356 -0.2336,-0.35034 -0.4672,-0.35034 z"
       id="path16-9-6-7"
       style="fill:#ffffff;fill-opacity:1;stroke-width:1.16778183"
       inkscape:connector-curvature="0"
       inkscape:export-filename="G:\Users\suitedoalex\sites\listen-on-spotify-3.png"
       inkscape:export-xdpi="45.430252"
       inkscape:export-ydpi="45.430252" />
    <path
       class="st0"
       d="m 732.21637,-242.01229 h -6.8899 c -0.2336,0 -0.4672,0.23356 -0.4672,0.46711 v 30.01199 c 0,0.23355 0.2336,0.46711 0.4672,0.46711 h 6.8899 c 0.2336,0 0.4671,-0.23356 0.4671,-0.46711 v -30.01199 c 0.1169,-0.23355 -0.1168,-0.46711 -0.4671,-0.46711"
       id="path18-8-8-0"
       style="fill:#ffffff;fill-opacity:1;stroke-width:1.16778183"
       inkscape:connector-curvature="0"
       inkscape:export-filename="G:\Users\suitedoalex\sites\listen-on-spotify-3.png"
       inkscape:export-xdpi="45.430252"
       inkscape:export-ydpi="45.430252" />
    <path
       class="st0"
       d="m 728.82977,-255.67533 c -2.6859,0 -4.9047,2.21878 -4.9047,4.90468 0,2.68589 2.2188,4.90469 4.9047,4.90469 2.6859,0 4.9047,-2.2188 4.9047,-4.90469 0,-2.6859 -2.2188,-4.90468 -4.9047,-4.90468"
       id="path20-4-5-7"
       style="fill:#ffffff;fill-opacity:1;stroke-width:1.16778183"
       inkscape:connector-curvature="0"
       inkscape:export-filename="G:\Users\suitedoalex\sites\listen-on-spotify-3.png"
       inkscape:export-xdpi="45.430252"
       inkscape:export-ydpi="45.430252" />
  </g>
</svg>
