<svg xmlns="http://www.w3.org/2000/svg" width="214" height="81" viewBox="0 0 214 81">
  <g id="Path_2" data-name="Path 2">
    <path d="M 209 80.5 L 5 80.5 C 2.518684148788452 80.5 0.5 78.48131561279297 0.5 76 L 0.5 5 C 0.5 2.518684148788452 2.518684148788452 0.5 5 0.5 L 209 0.5 C 211.4813232421875 0.5 213.5 2.518684148788452 213.5 5 L 213.5 76 C 213.5 78.48131561279297 211.4813232421875 80.5 209 80.5 Z" stroke="none"/>
    <path d="M 5 1 C 2.794387817382813 1 1 2.794387817382813 1 5 L 1 76 C 1 78.20561218261719 2.794387817382813 80 5 80 L 209 80 C 211.2056121826172 80 213 78.20561218261719 213 76 L 213 5 C 213 2.794387817382813 211.2056121826172 1 209 1 L 5 1 M 5 0 L 209 0 C 211.7614135742188 0 214 2.23858642578125 214 5 L 214 76 C 214 78.76141357421875 211.7614135742188 81 209 81 L 5 81 C 2.238555908203125 81 0 78.76141357421875 0 76 L 0 5 C 0 2.23858642578125 2.238555908203125 0 5 0 Z" stroke="none" fill="#fff"/>
  </g>
  <path id="Path_3" data-name="Path 3" d="M9.1,0H1.836V-14H3.477v12.52H9.1Zm2.754-12.539a1.015,1.015,0,0,1-.732-.293.989.989,0,0,1-.3-.742,1,1,0,0,1,.3-.747,1.006,1.006,0,0,1,.732-.3,1.034,1.034,0,0,1,.747.3,1,1,0,0,1,.308.747.99.99,0,0,1-.308.732A1.025,1.025,0,0,1,11.855-12.539ZM12.637,0h-1.6V-10h1.6Zm2.637-.361V-2.08a4.74,4.74,0,0,0,2.881.967q2.109,0,2.109-1.406a1.22,1.22,0,0,0-.181-.679,1.8,1.8,0,0,0-.488-.493,3.758,3.758,0,0,0-.723-.386q-.415-.171-.894-.356a11.508,11.508,0,0,1-1.167-.532,3.525,3.525,0,0,1-.84-.605,2.253,2.253,0,0,1-.508-.767,2.712,2.712,0,0,1-.171-1.006,2.389,2.389,0,0,1,.322-1.245,2.858,2.858,0,0,1,.859-.908,4.007,4.007,0,0,1,1.226-.552,5.436,5.436,0,0,1,1.421-.186,5.737,5.737,0,0,1,2.324.449v1.621a4.53,4.53,0,0,0-2.539-.723,2.968,2.968,0,0,0-.811.1,1.984,1.984,0,0,0-.62.288,1.331,1.331,0,0,0-.4.444,1.17,1.17,0,0,0-.142.571,1.37,1.37,0,0,0,.142.654,1.44,1.44,0,0,0,.415.469,3.172,3.172,0,0,0,.664.371q.391.166.889.361a12.368,12.368,0,0,1,1.191.522,4.086,4.086,0,0,1,.9.605,2.366,2.366,0,0,1,.571.776,2.5,2.5,0,0,1,.2,1.045,2.464,2.464,0,0,1-.327,1.289,2.8,2.8,0,0,1-.874.908,4,4,0,0,1-1.26.537,6.22,6.22,0,0,1-1.494.176A5.674,5.674,0,0,1,15.273-.361ZM29-.1A3.088,3.088,0,0,1,27.51.215q-2.627,0-2.627-2.93V-8.633H23.164V-10h1.719v-2.441l1.6-.518V-10H29v1.367h-2.52V-3a2.336,2.336,0,0,0,.342,1.436,1.364,1.364,0,0,0,1.133.43A1.684,1.684,0,0,0,29-1.465ZM39.18-4.6H32.119a3.74,3.74,0,0,0,.9,2.578,3.1,3.1,0,0,0,2.363.908,4.913,4.913,0,0,0,3.105-1.113v1.5A5.8,5.8,0,0,1,35,.234a4.227,4.227,0,0,1-3.33-1.362,5.576,5.576,0,0,1-1.211-3.833,5.468,5.468,0,0,1,1.323-3.8,4.243,4.243,0,0,1,3.286-1.47,3.76,3.76,0,0,1,3.037,1.27A5.293,5.293,0,0,1,39.18-5.439ZM37.539-5.957a3.259,3.259,0,0,0-.669-2.158,2.279,2.279,0,0,0-1.831-.771,2.587,2.587,0,0,0-1.924.811,3.678,3.678,0,0,0-.977,2.119ZM49.9,0H48.3V-5.7q0-3.184-2.324-3.184a2.521,2.521,0,0,0-1.987.9A3.348,3.348,0,0,0,43.2-5.7V0H41.6V-10h1.6v1.66h.039a3.609,3.609,0,0,1,3.281-1.895,3.059,3.059,0,0,1,2.51,1.06A4.72,4.72,0,0,1,49.9-6.113ZM62.578.234a4.638,4.638,0,0,1-3.54-1.4,5.191,5.191,0,0,1-1.323-3.716,5.407,5.407,0,0,1,1.377-3.936,4.95,4.95,0,0,1,3.721-1.416A4.485,4.485,0,0,1,66.3-8.857a5.46,5.46,0,0,1,1.255,3.818,5.372,5.372,0,0,1-1.353,3.833A4.739,4.739,0,0,1,62.578.234ZM62.7-8.887a3.046,3.046,0,0,0-2.441,1.05,4.312,4.312,0,0,0-.9,2.9,4.078,4.078,0,0,0,.908,2.8A3.087,3.087,0,0,0,62.7-1.113a2.928,2.928,0,0,0,2.388-1.006,4.365,4.365,0,0,0,.835-2.861,4.44,4.44,0,0,0-.835-2.891A2.915,2.915,0,0,0,62.7-8.887ZM78.418,0h-1.6V-5.7q0-3.184-2.324-3.184a2.521,2.521,0,0,0-1.987.9,3.348,3.348,0,0,0-.786,2.28V0h-1.6V-10h1.6v1.66h.039a3.609,3.609,0,0,1,3.281-1.895,3.059,3.059,0,0,1,2.51,1.06,4.72,4.72,0,0,1,.869,3.062Z" transform="translate(80 22)" fill="#fff"/>
  <path id="apple-music" d="M68.2,35.6V11.479H68L57.493,35.6H53.406L42.9,11.479H42.7V35.6H37.838V2.9h6.227l11.287,26.09h.195L66.834,2.9h6.422V35.6Zm32.5,0h-5.06v-4.11h-.195c-1.362,2.859-4.087,4.468-7.979,4.468-5.644,0-8.952-3.4-8.952-8.935V11.658h5.254V26.133c0,3.574,1.946,5.54,5.449,5.54,3.892,0,6.033-2.5,6.033-6.255V11.658H100.5L100.7,35.6Zm14.4-24.3c6.033,0,9.73,3.038,9.925,7.505h-4.865c-.389-2.323-2.141-3.753-5.06-3.753s-4.865,1.251-4.865,3.217c0,1.43,1.168,2.5,3.892,3.038l4.087.894c5.254,1.072,7.2,3.038,7.2,6.433,0,4.289-4.281,7.327-10.314,7.327-6.422,0-10.314-2.859-10.7-7.505h5.254c.389,2.5,2.335,3.753,5.449,3.753s5.06-1.251,5.06-3.217c0-1.608-.973-2.5-3.7-3.038l-4.087-.894c-4.865-1.072-7.2-3.217-7.2-6.791C105.171,14.16,109.063,11.3,115.1,11.3ZM129.3,5.4a3.125,3.125,0,0,1,6.227,0,3.125,3.125,0,0,1-6.227,0Zm.389,6.255h5.254V35.6h-5.254Zm27.439,8.22a5.818,5.818,0,0,0-6.033-4.646c-4.087,0-6.811,3.217-6.811,8.22,0,5.182,2.724,8.22,6.811,8.22,3.308,0,5.254-1.608,6.033-4.468h5.06c-.584,5-4.865,8.578-11.092,8.578-7.395,0-12.065-4.646-12.065-12.33,0-7.505,4.67-12.33,12.065-12.33,6.617,0,10.509,3.931,11.092,8.578l-5.06.179ZM21.686,6.118a7.448,7.448,0,0,1-5.644,2.5,6.832,6.832,0,0,1,1.946-5.54A7.956,7.956,0,0,1,23.632.4a7.949,7.949,0,0,1-1.946,5.718Zm1.946,2.859a8.816,8.816,0,0,1,7.006,3.574c-.195.179-4.087,2.323-4.087,6.791,0,5.361,5.06,7.148,5.06,7.148a17.5,17.5,0,0,1-2.53,5c-1.557,2.144-3.308,4.289-5.838,4.289s-3.308-1.43-6.227-1.43-3.892,1.43-6.227,1.43c-2.53,0-4.476-2.323-6.033-4.468C1.447,26.848-1.083,18.806,2.42,13.445A9.243,9.243,0,0,1,10.2,8.978c2.53,0,4.865,1.608,6.227,1.608s4.087-1.787,7.2-1.608Z" transform="translate(25.267 28.6)" fill="#fff"/>
</svg>
