<svg xmlns="http://www.w3.org/2000/svg" viewBox="0 0 214 81">
  <g id="Path_2" data-name="Path 2">
    <path d="M 209 80.5 L 5 80.5 C 2.518684148788452 80.5 0.5 78.48131561279297 0.5 76 L 0.5 5 C 0.5 2.518684148788452 2.518684148788452 0.5 5 0.5 L 209 0.5 C 211.4813232421875 0.5 213.5 2.518684148788452 213.5 5 L 213.5 76 C 213.5 78.48131561279297 211.4813232421875 80.5 209 80.5 Z" stroke="none"/>
    <path d="M 5 1 C 2.794387817382813 1 1 2.794387817382813 1 5 L 1 76 C 1 78.20561218261719 2.794387817382813 80 5 80 L 209 80 C 211.2056121826172 80 213 78.20561218261719 213 76 L 213 5 C 213 2.794387817382813 211.2056121826172 1 209 1 L 5 1 M 5 0 L 209 0 C 211.7614135742188 0 214 2.23858642578125 214 5 L 214 76 C 214 78.76141357421875 211.7614135742188 81 209 81 L 5 81 C 2.238555908203125 81 0 78.76141357421875 0 76 L 0 5 C 0 2.23858642578125 2.238555908203125 0 5 0 Z" stroke="none" fill="#fff"/>
  </g>
  <path id="Path_3" data-name="Path 3" d="M9.1,0H1.836V-14H3.477v12.52H9.1Zm2.754-12.539a1.015,1.015,0,0,1-.732-.293.989.989,0,0,1-.3-.742,1,1,0,0,1,.3-.747,1.006,1.006,0,0,1,.732-.3,1.034,1.034,0,0,1,.747.3,1,1,0,0,1,.308.747.99.99,0,0,1-.308.732A1.025,1.025,0,0,1,11.855-12.539ZM12.637,0h-1.6V-10h1.6Zm2.637-.361V-2.08a4.74,4.74,0,0,0,2.881.967q2.109,0,2.109-1.406a1.22,1.22,0,0,0-.181-.679,1.8,1.8,0,0,0-.488-.493,3.758,3.758,0,0,0-.723-.386q-.415-.171-.894-.356a11.508,11.508,0,0,1-1.167-.532,3.525,3.525,0,0,1-.84-.605,2.253,2.253,0,0,1-.508-.767,2.712,2.712,0,0,1-.171-1.006,2.389,2.389,0,0,1,.322-1.245,2.858,2.858,0,0,1,.859-.908,4.007,4.007,0,0,1,1.226-.552,5.436,5.436,0,0,1,1.421-.186,5.737,5.737,0,0,1,2.324.449v1.621a4.53,4.53,0,0,0-2.539-.723,2.968,2.968,0,0,0-.811.1,1.984,1.984,0,0,0-.62.288,1.331,1.331,0,0,0-.4.444,1.17,1.17,0,0,0-.142.571,1.37,1.37,0,0,0,.142.654,1.44,1.44,0,0,0,.415.469,3.172,3.172,0,0,0,.664.371q.391.166.889.361a12.368,12.368,0,0,1,1.191.522,4.086,4.086,0,0,1,.9.605,2.366,2.366,0,0,1,.571.776,2.5,2.5,0,0,1,.2,1.045,2.464,2.464,0,0,1-.327,1.289,2.8,2.8,0,0,1-.874.908,4,4,0,0,1-1.26.537,6.22,6.22,0,0,1-1.494.176A5.674,5.674,0,0,1,15.273-.361ZM29-.1A3.088,3.088,0,0,1,27.51.215q-2.627,0-2.627-2.93V-8.633H23.164V-10h1.719v-2.441l1.6-.518V-10H29v1.367h-2.52V-3a2.336,2.336,0,0,0,.342,1.436,1.364,1.364,0,0,0,1.133.43A1.684,1.684,0,0,0,29-1.465ZM39.18-4.6H32.119a3.74,3.74,0,0,0,.9,2.578,3.1,3.1,0,0,0,2.363.908,4.913,4.913,0,0,0,3.105-1.113v1.5A5.8,5.8,0,0,1,35,.234a4.227,4.227,0,0,1-3.33-1.362,5.576,5.576,0,0,1-1.211-3.833,5.468,5.468,0,0,1,1.323-3.8,4.243,4.243,0,0,1,3.286-1.47,3.76,3.76,0,0,1,3.037,1.27A5.293,5.293,0,0,1,39.18-5.439ZM37.539-5.957a3.259,3.259,0,0,0-.669-2.158,2.279,2.279,0,0,0-1.831-.771,2.587,2.587,0,0,0-1.924.811,3.678,3.678,0,0,0-.977,2.119ZM49.9,0H48.3V-5.7q0-3.184-2.324-3.184a2.521,2.521,0,0,0-1.987.9A3.348,3.348,0,0,0,43.2-5.7V0H41.6V-10h1.6v1.66h.039a3.609,3.609,0,0,1,3.281-1.895,3.059,3.059,0,0,1,2.51,1.06A4.72,4.72,0,0,1,49.9-6.113ZM62.578.234a4.638,4.638,0,0,1-3.54-1.4,5.191,5.191,0,0,1-1.323-3.716,5.407,5.407,0,0,1,1.377-3.936,4.95,4.95,0,0,1,3.721-1.416A4.485,4.485,0,0,1,66.3-8.857a5.46,5.46,0,0,1,1.255,3.818,5.372,5.372,0,0,1-1.353,3.833A4.739,4.739,0,0,1,62.578.234ZM62.7-8.887a3.046,3.046,0,0,0-2.441,1.05,4.312,4.312,0,0,0-.9,2.9,4.078,4.078,0,0,0,.908,2.8A3.087,3.087,0,0,0,62.7-1.113a2.928,2.928,0,0,0,2.388-1.006,4.365,4.365,0,0,0,.835-2.861,4.44,4.44,0,0,0-.835-2.891A2.915,2.915,0,0,0,62.7-8.887ZM78.418,0h-1.6V-5.7q0-3.184-2.324-3.184a2.521,2.521,0,0,0-1.987.9,3.348,3.348,0,0,0-.786,2.28V0h-1.6V-10h1.6v1.66h.039a3.609,3.609,0,0,1,3.281-1.895,3.059,3.059,0,0,1,2.51,1.06,4.72,4.72,0,0,1,.869,3.062Z" transform="translate(80 22)" fill="#fff"/>
  <g id="Group_1" data-name="Group 1" transform="translate(13.903 18.695)">
    <path id="Path_1" data-name="Path 1" d="M174.957,25.505a2.939,2.939,0,0,1-2.052-.819,2.748,2.748,0,0,1-.845-1.985,2.867,2.867,0,0,1,2.914-2.821,2.939,2.939,0,0,1,2.052.819,2.747,2.747,0,0,1,.845,1.985,2.87,2.87,0,0,1-2.914,2.821m.017-5.346a2.637,2.637,0,0,0-1.858.74,2.464,2.464,0,0,0-.753,1.8,2.528,2.528,0,0,0,2.594,2.523,2.64,2.64,0,0,0,1.856-.74,2.522,2.522,0,0,0,.008-3.591,2.617,2.617,0,0,0-1.847-.734m.64,2.813.821,1.112h-.691l-.736-1.019h-.637v1.019h-.578V21.14h1.359c.705,0,1.17.351,1.17.939a.882.882,0,0,1-.708.893m-.487-1.328h-.756v.931h.756c.377,0,.6-.178.6-.466s-.227-.466-.6-.466M138.866,12a2.858,2.858,0,1,0,2.952,2.855A2.907,2.907,0,0,0,138.866,12m2.039,7.915h-4.118a.3.3,0,0,0-.3.293V37.589a.294.294,0,0,0,.3.293h4.121a.3.3,0,0,0,.3-.293V20.208a.3.3,0,0,0-.3-.293m9.156.016v-.548c0-1.621.643-2.344,2.084-2.344a7.116,7.116,0,0,1,2.322.416.309.309,0,0,0,.273-.04.287.287,0,0,0,.123-.239V13.821a.294.294,0,0,0-.215-.279,11.665,11.665,0,0,0-3.427-.477c-3.8,0-5.814,2.073-5.814,5.993V19.9h-1.98a.3.3,0,0,0-.3.29v3.443a.3.3,0,0,0,.3.293h1.98V37.595a.3.3,0,0,0,.3.29h4.121a.3.3,0,0,0,.3-.293V23.925h3.846l5.893,13.667c-.668,1.432-1.325,1.72-2.223,1.72a4.88,4.88,0,0,1-2.274-.624.318.318,0,0,0-.238-.022.3.3,0,0,0-.178.159l-1.4,2.961a.286.286,0,0,0,.127.378,8.91,8.91,0,0,0,4.4,1.09c3.042,0,4.724-1.369,6.2-5.059l7.148-17.863a.282.282,0,0,0-.03-.273.3.3,0,0,0-.251-.127h-4.288a.3.3,0,0,0-.283.2l-4.4,12.136-4.814-12.144a.3.3,0,0,0-.28-.189h-7.037m-15.794-.016h-4.531V15.432a.286.286,0,0,0-.089-.206.306.306,0,0,0-.214-.084h-4.121a.3.3,0,0,0-.3.29v4.484H123.03a.305.305,0,0,0-.213.086.285.285,0,0,0-.087.207v3.424a.3.3,0,0,0,.3.293h1.982v8.858c0,3.582,1.841,5.4,5.477,5.4a7.717,7.717,0,0,0,3.857-.926A.289.289,0,0,0,134.5,37V33.738a.288.288,0,0,0-.141-.25.309.309,0,0,0-.295-.012,5.332,5.332,0,0,1-2.419.564c-1.323,0-1.912-.578-1.912-1.879V23.925h4.531a.305.305,0,0,0,.215-.085.285.285,0,0,0,.088-.208V20.208A.285.285,0,0,0,134.48,20a.305.305,0,0,0-.213-.086m-21.724-.364a9.567,9.567,0,0,0-9.9,9.413c0,5.223,4.322,9.312,9.835,9.312,5.57,0,9.935-4.119,9.935-9.378,0-5.242-4.333-9.348-9.867-9.348m0,14.686a5.148,5.148,0,0,1-5.183-5.341,5.024,5.024,0,0,1,5.115-5.27,5.159,5.159,0,0,1,5.211,5.341,5.035,5.035,0,0,1-5.143,5.27M92.68,19.551a7.315,7.315,0,0,0-5.794,2.7V20.208a.3.3,0,0,0-.3-.293H82.465a.3.3,0,0,0-.3.293v22.65a.3.3,0,0,0,.3.29h4.121a.3.3,0,0,0,.3-.29V35.71a7.523,7.523,0,0,0,5.794,2.533c4.31,0,8.674-3.21,8.674-9.345s-4.361-9.348-8.674-9.348M96.565,28.9c0,3.122-1.991,5.305-4.84,5.305A5.02,5.02,0,0,1,86.784,28.9a5.02,5.02,0,0,1,4.942-5.305c2.8,0,4.843,2.229,4.843,5.305M72.675,23.941c-4.6-1.063-5.418-1.808-5.418-3.372,0-1.479,1.439-2.473,3.58-2.473a10.663,10.663,0,0,1,6.287,2.309.311.311,0,0,0,.226.054.3.3,0,0,0,.2-.117L79.8,17.278a.286.286,0,0,0-.057-.394A13.872,13.872,0,0,0,70.9,13.923c-4.97,0-8.439,2.881-8.439,7.009,0,4.423,2.993,5.99,8.167,7.2,4.4.981,5.146,1.8,5.146,3.273,0,1.627-1.5,2.638-3.922,2.638a10.777,10.777,0,0,1-7.326-2.925.318.318,0,0,0-.221-.071.3.3,0,0,0-.207.1l-2.52,2.9a.281.281,0,0,0,.031.405,15.31,15.31,0,0,0,10.141,3.76c5.352,0,8.813-2.829,8.813-7.206,0-3.7-2.285-5.746-7.893-7.066M26.746.305C12.028.3.1,11.844.1,26.078S12.028,51.851,26.746,51.851,53.395,40.312,53.395,26.078,41.464.3,26.746.3M38.969,37.477a1.657,1.657,0,0,1-1.028.726,1.708,1.708,0,0,1-1.257-.192c-6.259-3.7-14.132-4.533-23.409-2.484a1.662,1.662,0,0,1-1.988-1.208A1.605,1.605,0,0,1,12.535,32.4c10.15-2.246,18.858-1.279,25.881,2.873a1.579,1.579,0,0,1,.552,2.208m3.257-7.017a2.12,2.12,0,0,1-2.855.663c-7.162-4.259-18.082-5.491-26.555-3a2.091,2.091,0,0,1-2.472-1.374,2,2,0,0,1,1.266-2.471c9.68-2.84,21.71-1.463,29.934,3.424a2.016,2.016,0,0,1,.936,1.246,1.954,1.954,0,0,1-.25,1.521m.283-7.31c-8.592-4.933-22.763-5.387-30.962-2.977a2.507,2.507,0,0,1-3.108-1.606A2.4,2.4,0,0,1,10.1,15.563c9.411-2.766,25.06-2.229,34.947,3.446a2.367,2.367,0,0,1,.872,3.3,2.54,2.54,0,0,1-3.415.844" transform="translate(0 0)" fill="#fff" fill-rule="evenodd"/>
  </g>
</svg>
